<svg id="Layer_1" data-name="Layer 1" xmlns="http://www.w3.org/2000/svg" width="180" height="30" viewBox="0 0 180 30">
  <title>technology-icon-sprite</title>
  <g>
    <g id="_Group_" data-name=" Group ">
      <path id="_Path_" data-name=" Path " d="M3.07,11.53a3.79,3.79,0,0,1,6.08-.62" style="fill: none;stroke: #777;stroke-linecap: round;stroke-linejoin: round"/>
      <path id="_Path_2" data-name=" Path 2" d="M15.09,11a3.79,3.79,0,0,1-6-.09" style="fill: none;stroke: #777;stroke-linecap: round;stroke-linejoin: round"/>
    </g>
    <g id="_Group_2" data-name=" Group 2">
      <path id="_Path_3" data-name=" Path 3" d="M3,15.51a3.79,3.79,0,0,1,6.08-.62" style="fill: none;stroke: #777;stroke-linecap: round;stroke-linejoin: round"/>
      <path id="_Path_4" data-name=" Path 4" d="M15,15a3.79,3.79,0,0,1-6-.09" style="fill: none;stroke: #777;stroke-linecap: round;stroke-linejoin: round"/>
    </g>
    <g id="_Group_3" data-name=" Group 3">
      <path id="_Path_5" data-name=" Path 5" d="M3,19.5a3.79,3.79,0,0,1,6.08-.62" style="fill: none;stroke: #777;stroke-linecap: round;stroke-linejoin: round"/>
      <path id="_Path_6" data-name=" Path 6" d="M15,19a3.79,3.79,0,0,1-5.92-.13" style="fill: none;stroke: #777;stroke-linecap: round;stroke-linejoin: round"/>
    </g>
    <g id="_Group_4" data-name=" Group 4">
      <path id="_Path_7" data-name=" Path 7" d="M15,11.09a3.79,3.79,0,0,1,5.79-.19" style="fill: none;stroke: #777;stroke-linecap: round;stroke-linejoin: round"/>
      <path id="_Path_8" data-name=" Path 8" d="M27,10.56a3.79,3.79,0,0,1-6.25.33" style="fill: none;stroke: #777;stroke-linecap: round;stroke-linejoin: round"/>
    </g>
    <g id="_Group_5" data-name=" Group 5">
      <path id="_Path_9" data-name=" Path 9" d="M14.92,15.07a3.79,3.79,0,0,1,5.78-.18" style="fill: none;stroke: #777;stroke-linecap: round;stroke-linejoin: round"/>
      <path id="_Path_10" data-name=" Path 10" d="M26.93,14.54a3.79,3.79,0,0,1-6.25.33" style="fill: none;stroke: #777;stroke-linecap: round;stroke-linejoin: round"/>
    </g>
    <g id="_Group_6" data-name=" Group 6">
      <path id="_Path_11" data-name=" Path 11" d="M14.92,19.06a3.79,3.79,0,0,1,5.78-.18" style="fill: none;stroke: #777;stroke-linecap: round;stroke-linejoin: round"/>
      <path id="_Path_12" data-name=" Path 12" d="M26.93,18.53a3.79,3.79,0,0,1-6.25.33" style="fill: none;stroke: #777;stroke-linecap: round;stroke-linejoin: round"/>
    </g>
  </g>
  <g id="_Group_7" data-name=" Group 7">
    <g>
      <path id="_Rectangle_" data-name=" Rectangle " d="M43.53,19.3h0a2,2,0,0,1,.74-2.7h0a2,2,0,0,1,2.7.74h0a2,2,0,0,1-.74,2.7h0A2,2,0,0,1,43.53,19.3Z" style="fill: none;stroke: #777;stroke-linecap: round;stroke-linejoin: round"/>
      <path id="_Path_13" data-name=" Path 13" d="M44.43,16.54l.09-11.38a.38.38,0,0,1,0-.16.73.73,0,0,1,.7-.51h0a.73.73,0,0,1,.73.73h0l1.59,8.34c0,.4-.53.73-1.17.72h-.64v2.14" style="fill: none;stroke: #777;stroke-linecap: round;stroke-linejoin: round"/>
      <path id="_Path_14" data-name=" Path 14" d="M43.73,19.83,34,25.33a.38.38,0,0,1-.16,0A.73.73,0,0,1,33.1,25h0a.73.73,0,0,1,.27-1h0l6.43-5.55c.35-.2.89.09,1.21.65l.31.55,1.86-1.06" style="fill: none;stroke: #777;stroke-linecap: round;stroke-linejoin: round"/>
      <path id="_Path_15" data-name=" Path 15" d="M47.21,18.61l9.48,5.57a.38.38,0,0,1,.12.11.73.73,0,0,1,.09.86h0a.73.73,0,0,1-1,.26h0l-8-2.79c-.35-.2-.37-.82,0-1.37l.32-.55-1.56-.92" style="fill: none;stroke: #777;stroke-linecap: round;stroke-linejoin: round"/>
    </g>
  </g>
  <g id="_Group_8" data-name=" Group 8">
    <path id="_Rectangle_2" data-name=" Rectangle 2" d="M69.48,27.08l-.79-1.23a13,13,0,0,1,3.9-17.94L80.15,3h0L81,4.31a13,13,0,0,1-3.9,17.94l-7.56,4.86h0Z" style="fill: none;stroke: #777;stroke-linecap: round;stroke-linejoin: round"/>
    <line id="_Path_16" data-name=" Path 16" x1="69.62" y1="26.89" x2="80.38" y2="2.89" style="fill: none;stroke: #777;stroke-linecap: round;stroke-linejoin: round"/>
    <g id="_Group_9" data-name=" Group 9">
      <line id="_Path_17" data-name=" Path 17" x1="74.9" y1="15.37" x2="82.13" y2="12.63" style="fill: none;stroke: #777;stroke-linecap: round;stroke-linejoin: round"/>
    </g>
    <g id="_Group_10" data-name=" Group 10">
      <line id="_Path_18" data-name=" Path 18" x1="72.04" y1="21.16" x2="68.93" y2="12.92" style="fill: none;stroke: #777;stroke-linecap: round;stroke-linejoin: round"/>
    </g>
  </g>
  <g id="_Group_11" data-name=" Group 11">
    <circle id="_Path_19" data-name=" Path 19" cx="105" cy="15" r="5.23" style="fill: none;stroke: #777;stroke-linecap: round;stroke-linejoin: round"/>
    <line id="_Path_20" data-name=" Path 20" x1="105" y1="7.53" x2="105" y2="3" style="fill: none;stroke: #777;stroke-linecap: round;stroke-linejoin: round"/>
    <line id="_Path_21" data-name=" Path 21" x1="93" y1="15" x2="97.53" y2="15" style="fill: none;stroke: #777;stroke-linecap: round;stroke-linejoin: round"/>
    <line id="_Path_22" data-name=" Path 22" x1="96.52" y1="6.51" x2="99.72" y2="9.71" style="fill: none;stroke: #777;stroke-linecap: round;stroke-linejoin: round"/>
    <g id="_Group_12" data-name=" Group 12">
      <line id="_Path_23" data-name=" Path 23" x1="105" y1="22.47" x2="105" y2="27" style="fill: none;stroke: #777;stroke-linecap: round;stroke-linejoin: round"/>
      <line id="_Path_24" data-name=" Path 24" x1="117" y1="15" x2="112.47" y2="15" style="fill: none;stroke: #777;stroke-linecap: round;stroke-linejoin: round"/>
      <line id="_Path_25" data-name=" Path 25" x1="113.48" y1="23.49" x2="110.28" y2="20.29" style="fill: none;stroke: #777;stroke-linecap: round;stroke-linejoin: round"/>
    </g>
    <line id="_Path_26" data-name=" Path 26" x1="110.28" y1="9.72" x2="113.49" y2="6.51" style="fill: none;stroke: #777;stroke-linecap: round;stroke-linejoin: round"/>
    <line id="_Path_27" data-name=" Path 27" x1="96.52" y1="23.49" x2="99.72" y2="20.29" style="fill: none;stroke: #777;stroke-linecap: round;stroke-linejoin: round"/>
  </g>
  <g id="_Group_13" data-name=" Group 13">
    <line id="_Path_28" data-name=" Path 28" x1="123" y1="24.53" x2="147" y2="24.53" style="fill: none;stroke: #777;stroke-linecap: round;stroke-linejoin: round"/>
    <g id="_Group_14" data-name=" Group 14">
      <g id="_Group_15" data-name=" Group 15">
        <g id="_Group_16" data-name=" Group 16">
          <path id="_Path_29" data-name=" Path 29" d="M128.53,21a3,3,0,0,1,.94-2.31l.39-.31" style="fill: none;stroke: #777;stroke-linecap: round;stroke-linejoin: round"/>
        </g>
      </g>
      <g id="_Group_17" data-name=" Group 17">
        <g id="_Group_18" data-name=" Group 18">
          <path id="_Path_30" data-name=" Path 30" d="M129.72,13.64l-.63-.5a3.11,3.11,0,0,1-.05-4.4h0l.05-.05.6-.48" style="fill: none;stroke: #777;stroke-linecap: round;stroke-linejoin: round"/>
          <path id="_Path_31" data-name=" Path 31" d="M129.3,13.32l.66.52a3.11,3.11,0,0,1,.05,4.4h0l-.05,0-.2.16" style="fill: none;stroke: #777;stroke-linecap: round;stroke-linejoin: round"/>
        </g>
        <g id="_Group_19" data-name=" Group 19">
          <path id="_Path_32" data-name=" Path 32" d="M131.28,5.47a2.83,2.83,0,0,1-.94,2.23l-.85.67" style="fill: none;stroke: #777;stroke-linecap: round;stroke-linejoin: round"/>
        </g>
      </g>
    </g>
    <g id="_Group_20" data-name=" Group 20">
      <g id="_Group_21" data-name=" Group 21">
        <g id="_Group_22" data-name=" Group 22">
          <path id="_Path_33" data-name=" Path 33" d="M133.82,21a3,3,0,0,1,.94-2.31l.39-.31" style="fill: none;stroke: #777;stroke-linecap: round;stroke-linejoin: round"/>
        </g>
      </g>
      <g id="_Group_23" data-name=" Group 23">
        <g id="_Group_24" data-name=" Group 24">
          <path id="_Path_34" data-name=" Path 34" d="M135,13.64l-.63-.5a3.11,3.11,0,0,1-.05-4.4h0l.05-.05.6-.48" style="fill: none;stroke: #777;stroke-linecap: round;stroke-linejoin: round"/>
          <path id="_Path_35" data-name=" Path 35" d="M134.59,13.32l.66.52a3.11,3.11,0,0,1,.05,4.4h0l-.05,0-.2.16" style="fill: none;stroke: #777;stroke-linecap: round;stroke-linejoin: round"/>
        </g>
        <g id="_Group_25" data-name=" Group 25">
          <path id="_Path_36" data-name=" Path 36" d="M136.57,5.47a2.83,2.83,0,0,1-.94,2.23l-.85.67" style="fill: none;stroke: #777;stroke-linecap: round;stroke-linejoin: round"/>
        </g>
      </g>
    </g>
    <g id="_Group_26" data-name=" Group 26">
      <g id="_Group_27" data-name=" Group 27">
        <g id="_Group_28" data-name=" Group 28">
          <path id="_Path_37" data-name=" Path 37" d="M139.1,21a3,3,0,0,1,.94-2.31l.39-.31" style="fill: none;stroke: #777;stroke-linecap: round;stroke-linejoin: round"/>
        </g>
      </g>
      <g id="_Group_29" data-name=" Group 29">
        <g id="_Group_30" data-name=" Group 30">
          <path id="_Path_38" data-name=" Path 38" d="M140.29,13.64l-.63-.5a3.11,3.11,0,0,1-.05-4.4h0l.05-.05.6-.48" style="fill: none;stroke: #777;stroke-linecap: round;stroke-linejoin: round"/>
          <path id="_Path_39" data-name=" Path 39" d="M139.88,13.32l.66.52a3.11,3.11,0,0,1,.05,4.4h0l-.05,0-.2.16" style="fill: none;stroke: #777;stroke-linecap: round;stroke-linejoin: round"/>
        </g>
        <g id="_Group_31" data-name=" Group 31">
          <path id="_Path_40" data-name=" Path 40" d="M141.85,5.47a2.83,2.83,0,0,1-.94,2.23l-.85.67" style="fill: none;stroke: #777;stroke-linecap: round;stroke-linejoin: round"/>
        </g>
      </g>
    </g>
  </g>
  <g id="_Group_2-2" data-name=" Group 2-2">
    <path id="_Path_2-2" data-name=" Path 2-2" d="M173.42,18.47a7.65,7.65,0,0,1-6.61-2.8c-1.85-2.44,1.1-3.9,1.1-3.9s-3.6-1.5-8,2.8-6.91,3.9-6.91,3.9" style="fill: none;stroke: #777;stroke-linecap: round;stroke-linejoin: round"/>
    <path id="_Path_3-2" data-name=" Path 3-2" d="M177,17.23a4.38,4.38,0,0,1-3.78-1.6c-1.06-1.4.63-2.23.63-2.23s-2.06-.86-4.58,1.6a11.7,11.7,0,0,1-1.68,1.39" style="fill: none;stroke: #777;stroke-linecap: round;stroke-linejoin: round"/>
  </g>
</svg>
