<?xml version="1.0" encoding="utf-8"?>
<!-- Generator: Adobe Illustrator 19.0.0, SVG Export Plug-In . SVG Version: 6.00 Build 0)  -->
<svg version="1.1" id="Layer_1" xmlns="http://www.w3.org/2000/svg" xmlns:xlink="http://www.w3.org/1999/xlink" x="0px" y="0px"
	 width="66px" height="22px" viewBox="-316 386 66 22" enable-background="new -316 386 66 22" xml:space="preserve">
<g id="XMLID_38_">
</g>
<g id="XMLID_39_">
</g>
<g id="XMLID_40_">
</g>
<g id="XMLID_41_">
</g>
<g id="XMLID_42_">
</g>
<g id="XMLID_43_">
</g>
<rect x="-294" y="386" fill="none" width="22" height="22"/>
<rect x="-316" y="386" fill="none" width="22" height="22"/>
<rect x="-272" y="386" fill="none" width="22" height="22"/>
<path fill="#555555" d="M-299.3,395h-1.4h-1.9l1.2-1.2c-1-0.9-2.1-1.4-3.3-1.4c-2.6,0-4.7,2.1-4.7,4.7s2.1,4.7,4.7,4.7
	c1.2,0,2.3-0.4,3.1-1.2l0.8,0.8c-1,1-2.4,1.5-4,1.5c-3.2,0-5.9-2.6-5.9-5.9c0-3.2,2.6-5.9,5.9-5.9c1.5,0,2.9,0.6,4,1.5l1.4-1.1v3
	L-299.3,395L-299.3,395z"/>
<path fill="#005CA7" d="M-277.3,395h-1.4h-1.9l1.2-1.2c-1-0.9-2.1-1.4-3.3-1.4c-2.6,0-4.7,2.1-4.7,4.7s2.1,4.7,4.7,4.7
	c1.2,0,2.3-0.4,3.1-1.2l0.8,0.8c-1,1-2.4,1.5-4,1.5c-3.2,0-5.9-2.6-5.9-5.9c0-3.2,2.6-5.9,5.9-5.9c1.5,0,2.9,0.6,4,1.5l1.4-1.1v3
	L-277.3,395L-277.3,395z"/>
<path fill="#CECECE" d="M-255.3,395h-1.4h-1.9l1.2-1.2c-1-0.9-2.1-1.4-3.3-1.4c-2.6,0-4.7,2.1-4.7,4.7s2.1,4.7,4.7,4.7
	c1.2,0,2.3-0.4,3.1-1.2l0.8,0.8c-1,1-2.4,1.5-4,1.5c-3.2,0-5.9-2.6-5.9-5.9c0-3.2,2.6-5.9,5.9-5.9c1.5,0,2.9,0.6,4,1.5l1.4-1.1v3
	L-255.3,395L-255.3,395z"/>
</svg>
