<?xml version="1.0" encoding="utf-8"?>
<!-- Generator: Adobe Illustrator 19.0.0, SVG Export Plug-In . SVG Version: 6.00 Build 0)  -->
<svg version="1.1" id="Layer_1" xmlns="http://www.w3.org/2000/svg" xmlns:xlink="http://www.w3.org/1999/xlink" x="0px" y="0px"
	 width="66px" height="22px" viewBox="-316 386 66 22" enable-background="new -316 386 66 22" xml:space="preserve">
<g id="XMLID_38_">
</g>
<g id="XMLID_39_">
</g>
<g id="XMLID_40_">
</g>
<g id="XMLID_41_">
</g>
<g id="XMLID_42_">
</g>
<g id="XMLID_43_">
</g>
<rect x="-294" y="386" fill="none" width="22" height="22"/>
<rect x="-316" y="386" fill="none" width="22" height="22"/>
<rect x="-272" y="386" fill="none" width="22" height="22"/>
<g id="XMLID_1_">
</g>
<g opacity="0.5">
	<g>
		<g>
			<g>
				<g>
					<rect x="-310" y="391.9" fill="#555555" width="2" height="2"/>
				</g>
				<g>
					<rect x="-306" y="391.9" fill="#555555" width="2" height="2"/>
				</g>
				<g>
					<rect x="-302" y="391.9" fill="#555555" width="2" height="2"/>
				</g>
				<g>
					<rect x="-310" y="396" fill="#555555" width="2" height="2"/>
				</g>
				<g>
					<rect x="-306" y="396" fill="#555555" width="2" height="2"/>
				</g>
				<g>
					<rect x="-302" y="396" fill="#555555" width="2" height="2"/>
				</g>
				<g>
					<rect x="-310" y="400.1" fill="#555555" width="2" height="2"/>
				</g>
				<g>
					<rect x="-306" y="400.1" fill="#555555" width="2" height="2"/>
				</g>
				<g>
					<rect x="-302" y="400.1" fill="#555555" width="2" height="2"/>
				</g>
			</g>
		</g>
	</g>
</g>
<g opacity="0.7">
	<g>
		<g>
			<g>
				<g>
					<rect x="-266" y="391.9" fill="#CECECE" width="2" height="2"/>
				</g>
				<g>
					<rect x="-262" y="391.9" fill="#CECECE" width="2" height="2"/>
				</g>
				<g>
					<rect x="-258" y="391.9" fill="#CECECE" width="2" height="2"/>
				</g>
				<g>
					<rect x="-266" y="396" fill="#CECECE" width="2" height="2"/>
				</g>
				<g>
					<rect x="-262" y="396" fill="#CECECE" width="2" height="2"/>
				</g>
				<g>
					<rect x="-258" y="396" fill="#CECECE" width="2" height="2"/>
				</g>
				<g>
					<rect x="-266" y="400.1" fill="#CECECE" width="2" height="2"/>
				</g>
				<g>
					<rect x="-262" y="400.1" fill="#CECECE" width="2" height="2"/>
				</g>
				<g>
					<rect x="-258" y="400.1" fill="#CECECE" width="2" height="2"/>
				</g>
			</g>
		</g>
	</g>
</g>
<g>
	<g>
		<g>
			<g>
				<g>
					<rect x="-288" y="391.9" fill="#FFFFFF" width="2" height="2"/>
				</g>
				<g>
					<rect x="-284" y="391.9" fill="#FFFFFF" width="2" height="2"/>
				</g>
				<g>
					<rect x="-280" y="391.9" fill="#FFFFFF" width="2" height="2"/>
				</g>
				<g>
					<rect x="-288" y="396" fill="#FFFFFF" width="2" height="2"/>
				</g>
				<g>
					<rect x="-284" y="396" fill="#FFFFFF" width="2" height="2"/>
				</g>
				<g>
					<rect x="-280" y="396" fill="#FFFFFF" width="2" height="2"/>
				</g>
				<g>
					<rect x="-288" y="400.1" fill="#FFFFFF" width="2" height="2"/>
				</g>
				<g>
					<rect x="-284" y="400.1" fill="#FFFFFF" width="2" height="2"/>
				</g>
				<g>
					<rect x="-280" y="400.1" fill="#FFFFFF" width="2" height="2"/>
				</g>
			</g>
		</g>
	</g>
</g>
</svg>
