<?xml version="1.0" encoding="utf-8"?>
<!-- Generator: Adobe Illustrator 19.0.0, SVG Export Plug-In . SVG Version: 6.00 Build 0)  -->
<svg version="1.1" id="Layer_1" xmlns="http://www.w3.org/2000/svg" xmlns:xlink="http://www.w3.org/1999/xlink" x="0px" y="0px"
	 width="66px" height="22px" viewBox="-316 386 66 22" enable-background="new -316 386 66 22" xml:space="preserve">
<g id="XMLID_38_">
</g>
<g id="XMLID_39_">
</g>
<g id="XMLID_40_">
</g>
<g id="XMLID_41_">
</g>
<g id="XMLID_42_">
</g>
<g id="XMLID_43_">
</g>
<rect x="-294" y="386" fill="none" width="22" height="22"/>
<rect x="-316" y="386" fill="none" width="22" height="22"/>
<rect x="-272" y="386" fill="none" width="22" height="22"/>
<g>
	<g id="XMLID_31_">
		<path id="XMLID_37_" fill="#005CA7" d="M-288.8,398.2h-2c-0.3,0-0.5-0.2-0.5-0.5v-7.2c0-0.3,0.2-0.5,0.5-0.5h9.8
			c0.3,0,0.5,0.2,0.5,0.5v2h-1V391h-8.8v6.2h1.5V398.2z"/>
	</g>
	<g id="XMLID_30_">
		<path id="XMLID_36_" fill="#005CA7" d="M-286.8,400.2h-2c-0.3,0-0.5-0.2-0.5-0.5v-7.2c0-0.3,0.2-0.5,0.5-0.5h9.8
			c0.3,0,0.5,0.2,0.5,0.5v2h-1V393h-8.8v6.2h1.5V400.2z"/>
	</g>
	<g id="XMLID_29_">
		<path id="XMLID_35_" fill="#005CA7" d="M-281.5,402.2h-5.3c-0.3,0-0.5-0.2-0.5-0.5v-7.2c0-0.3,0.2-0.5,0.5-0.5h9.8
			c0.3,0,0.5,0.2,0.5,0.5v2.6h-1V395h-8.8v6.2h4.8V402.2z"/>
	</g>
	<g id="XMLID_28_">
		
			<rect id="XMLID_34_" x="-277.9" y="397.9" transform="matrix(-0.7071 -0.7071 0.7071 -0.7071 -757.3378 488.8272)" fill="#005CA7" width="1" height="6.8"/>
	</g>
	<g id="XMLID_27_">
		
			<rect id="XMLID_33_" x="-280.8" y="400.8" transform="matrix(-0.707 -0.7073 0.7073 -0.707 -757.3578 488.7279)" fill="#005CA7" width="6.8" height="1"/>
	</g>
</g>
<g>
	<g id="XMLID_10_">
		<path id="XMLID_11_" fill="#555555" d="M-310.8,398.2h-2c-0.3,0-0.5-0.2-0.5-0.5v-7.2c0-0.3,0.2-0.5,0.5-0.5h9.8
			c0.3,0,0.5,0.2,0.5,0.5v2h-1V391h-8.8v6.2h1.5V398.2z"/>
	</g>
	<g id="XMLID_8_">
		<path id="XMLID_9_" fill="#555555" d="M-308.8,400.2h-2c-0.3,0-0.5-0.2-0.5-0.5v-7.2c0-0.3,0.2-0.5,0.5-0.5h9.8
			c0.3,0,0.5,0.2,0.5,0.5v2h-1V393h-8.8v6.2h1.5V400.2z"/>
	</g>
	<g id="XMLID_6_">
		<path id="XMLID_7_" fill="#555555" d="M-303.5,402.2h-5.3c-0.3,0-0.5-0.2-0.5-0.5v-7.2c0-0.3,0.2-0.5,0.5-0.5h9.8
			c0.3,0,0.5,0.2,0.5,0.5v2.6h-1V395h-8.8v6.2h4.8V402.2z"/>
	</g>
	<g id="XMLID_4_">
		
			<rect id="XMLID_5_" x="-299.9" y="397.9" transform="matrix(-0.7071 -0.7071 0.7071 -0.7071 -794.8942 473.2708)" fill="#555555" width="1" height="6.8"/>
	</g>
	<g id="XMLID_2_">
		
			<rect id="XMLID_3_" x="-302.8" y="400.8" transform="matrix(-0.707 -0.7073 0.7073 -0.707 -794.9109 473.1683)" fill="#555555" width="6.8" height="1"/>
	</g>
</g>
<g>
	<g id="XMLID_20_">
		<path id="XMLID_21_" fill="#CECECE" d="M-266.8,398.2h-2c-0.3,0-0.5-0.2-0.5-0.5v-7.2c0-0.3,0.2-0.5,0.5-0.5h9.8
			c0.3,0,0.5,0.2,0.5,0.5v2h-1V391h-8.8v6.2h1.5V398.2z"/>
	</g>
	<g id="XMLID_18_">
		<path id="XMLID_19_" fill="#CECECE" d="M-264.8,400.2h-2c-0.3,0-0.5-0.2-0.5-0.5v-7.2c0-0.3,0.2-0.5,0.5-0.5h9.8
			c0.3,0,0.5,0.2,0.5,0.5v2h-1V393h-8.8v6.2h1.5V400.2z"/>
	</g>
	<g id="XMLID_16_">
		<path id="XMLID_17_" fill="#CECECE" d="M-259.5,402.2h-5.3c-0.3,0-0.5-0.2-0.5-0.5v-7.2c0-0.3,0.2-0.5,0.5-0.5h9.8
			c0.3,0,0.5,0.2,0.5,0.5v2.6h-1V395h-8.8v6.2h4.8V402.2z"/>
	</g>
	<g id="XMLID_14_">
		
			<rect id="XMLID_15_" x="-255.9" y="397.9" transform="matrix(-0.7071 -0.7071 0.7071 -0.7071 -719.7814 504.3835)" fill="#CECECE" width="1" height="6.8"/>
	</g>
	<g id="XMLID_12_">
		
			<rect id="XMLID_13_" x="-258.8" y="400.8" transform="matrix(-0.707 -0.7073 0.7073 -0.707 -719.8047 504.2876)" fill="#CECECE" width="6.8" height="1"/>
	</g>
</g>
<g id="XMLID_1_">
</g>
</svg>
