<svg id="Layer_1" data-name="Layer 1" xmlns="http://www.w3.org/2000/svg" width="21" height="10" viewBox="0 0 21 10"><defs><style>.cls-1{fill:#f9f9f9;}.cls-2{fill:#414141;}</style></defs><title>Artboard 1</title><path class="cls-1" d="M6.9,6.57,3.51,10,.1,6.56A.33.33,0,0,1,.36,6H6.64a.34.34,0,0,1,.26.57Z"/><path class="cls-1" d="M.1,3.43,3.49,0,6.9,3.44A.33.33,0,0,1,6.64,4H.36A.34.34,0,0,1,.1,3.43Z"/><path class="cls-2" d="M13.9,6.57,10.51,10,7.1,6.56A.33.33,0,0,1,7.36,6h6.28a.34.34,0,0,1,.26.57Z"/><path class="cls-1" d="M7.1,3.43,10.49,0,13.9,3.44a.33.33,0,0,1-.27.56H7.36a.34.34,0,0,1-.26-.57Z"/><path class="cls-1" d="M20.9,6.57,17.51,10,14.1,6.56A.33.33,0,0,1,14.36,6h6.28a.34.34,0,0,1,.26.57Z"/><path class="cls-2" d="M14.1,3.43,17.49,0,20.9,3.44a.33.33,0,0,1-.27.56H14.36a.34.34,0,0,1-.26-.57Z"/></svg>