<?xml version="1.0" encoding="utf-8"?>
<!-- Generator: Adobe Illustrator 15.0.0, SVG Export Plug-In . SVG Version: 6.00 Build 0)  -->
<!DOCTYPE svg PUBLIC "-//W3C//DTD SVG 1.1//EN" "http://www.w3.org/Graphics/SVG/1.1/DTD/svg11.dtd">
<svg version="1.1" xmlns="http://www.w3.org/2000/svg" xmlns:xlink="http://www.w3.org/1999/xlink" x="0px" y="0px" width="600px"
   height="300px" viewBox="0 0 600 300" enable-background="new 0 0 600 300" xml:space="preserve">
  <g id="Guides">
  </g>
  <g id="numeros">
  </g>
  <g id="fundo_dial_1_">
  </g>
  <g id="tick">
  </g>
  <g id="ponteiro_1_">
  </g>
  <g id="Layer_4">
    <rect x="31.656" y="266.402" fill="none" width="7.098" height="17.402"/>
    <g>
      <radialGradient id="fundo_x5F_dial_1_" cx="300" cy="198.9277" r="54.1722" fx="298.8476" fy="198.9714" gradientTransform="matrix(5 0 0 5 -1200 -720)" gradientUnits="userSpaceOnUse">
        <stop  offset="0.8528" style="stop-color:#FFFFFF"/>
        <stop  offset="1" style="stop-color:#66CCFF"/>
        <stop  offset="1" style="stop-color:#B5B5B5"/>
      </radialGradient>
      <path id="fundo_x5F_dial" fill="url(#fundo_x5F_dial_1_)" d="M50,275C50,136.926,161.926,25,300,25c138.07,0,250,111.926,250,250
        H50z"/>
      <path id="outline_azul_x5F__dial" fill="none" stroke="#66CCFF" stroke-width="0.3409" stroke-miterlimit="3.8637" d="M50,275
        C50,136.926,161.926,25,300,25c138.07,0,250,111.926,250,250"/>
    </g>
    
    <line fill-rule="evenodd" clip-rule="evenodd" fill="none" stroke="#66CCFF" stroke-width="0.3409" stroke-linecap="square" stroke-miterlimit="3.8637" x1="50" y1="275" x2="63.395" y2="275"/>
    <path id="linha_x5F_indicadora" fill="none" stroke="#FE860C" stroke-width="2" stroke-miterlimit="3.8637" d="M85.002,275
      L85,273.754C85,155.699,181.258,60,300,60c118.74,0,215,95.699,215,213.754L514.996,275"/>
    <g id="escala_cor" />
    <polygon id="ponteiro" fill-rule="evenodd" clip-rule="evenodd" fill="#626A6E" points="300,265 300,285 75,275.016  "/>
    <path id="base_ponteiro" fill="#626A6E" d="M257.512,285l-0.012-0.918c0-4.57,0.85-8.945,2.418-13.023
      c4.943-12.871,17.014-22.65,31.852-25.32c2.662-0.484,5.42-0.738,8.23-0.738c23.473,0,42.5,17.496,42.5,39.082L342.49,285H257.512z"/>
  </g>
</svg>
