<?xml version="1.0" encoding="utf-8"?>
<!-- Generator: Adobe Illustrator 19.1.0, SVG Export Plug-In . SVG Version: 6.00 Build 0)  -->
<svg version="1.1" id="Layer_1" xmlns="http://www.w3.org/2000/svg" xmlns:xlink="http://www.w3.org/1999/xlink" x="0px" y="0px"
	 width="60px" height="150px" viewBox="0 0 60 150" style="enable-background:new 0 0 60 150;" xml:space="preserve">
<style type="text/css">
	.st0{fill:none;stroke:#777777;stroke-miterlimit:10;}
	.st1{fill:#777777;}
	.st2{fill:none;stroke:#FFFFFF;stroke-miterlimit:10;}
	.st3{fill:#FFFFFF;stroke:#FFFFFF;stroke-miterlimit:10;}
</style>
<g>
	<line class="st0" x1="14.5" y1="9" x2="14.5" y2="21"/>
	<line class="st0" x1="8.5" y1="15" x2="20.5" y2="15"/>
</g>
<g>
	<line class="st0" x1="8.5" y1="45" x2="20.5" y2="45"/>
</g>
<g>
	<g>
		<line class="st0" x1="14.5" y1="74" x2="14.5" y2="69"/>
		<polyline class="st0" points="12.5,71 14.5,69 16.5,71 		"/>
	</g>
	<g>
		<line class="st0" x1="15.5" y1="75" x2="8.5" y2="75"/>
		<polyline class="st0" points="10.5,77 8.5,75 10.5,73 		"/>
	</g>
	<g>
		<line class="st0" x1="15.5" y1="75" x2="20.5" y2="75"/>
		<polyline class="st0" points="18.5,73 20.5,75 18.5,77 		"/>
	</g>
	<g>
		<line class="st0" x1="14.5" y1="74" x2="14.5" y2="81"/>
		<polyline class="st0" points="16.5,79 14.5,81 12.5,79 		"/>
	</g>
</g>
<g>
	<g>
		<g>
			<circle class="st0" cx="18.5" cy="108.8" r="2.5"/>
			<line class="st0" x1="20.2" y1="110.6" x2="22.2" y2="112.6"/>
		</g>
	</g>
	<polyline class="st0" points="13.4,109.4 6.8,109.4 6.8,103.4 6.8,97.4 12.8,97.4 18.8,97.4 18.8,104 	"/>
</g>
<g>
	<circle class="st1" cx="10.5" cy="131.5" r="1.5"/>
	<circle class="st1" cx="15.5" cy="131" r="1.5"/>
	<polyline class="st0" points="13.6,139.5 7,139.5 7,133.5 7,127.5 13,127.5 19,127.5 19,134.1 	"/>
	<circle class="st1" cx="11.5" cy="136" r="1.5"/>
	<g>
		<line class="st0" x1="19" y1="136.5" x2="19" y2="142.5"/>
		<line class="st0" x1="16" y1="139.5" x2="22" y2="139.5"/>
	</g>
</g>
<g>
	<line class="st2" x1="44.5" y1="9" x2="44.5" y2="21"/>
	<line class="st2" x1="38.5" y1="15" x2="50.5" y2="15"/>
</g>
<g>
	<line class="st2" x1="38.5" y1="45" x2="50.5" y2="45"/>
</g>
<g>
	<g>
		<line class="st2" x1="44.5" y1="74" x2="44.5" y2="69"/>
		<polyline class="st2" points="42.5,71 44.5,69 46.5,71 		"/>
	</g>
	<g>
		<line class="st2" x1="45.5" y1="75" x2="38.5" y2="75"/>
		<polyline class="st2" points="40.5,77 38.5,75 40.5,73 		"/>
	</g>
	<g>
		<line class="st2" x1="45.5" y1="75" x2="50.5" y2="75"/>
		<polyline class="st2" points="48.5,73 50.5,75 48.5,77 		"/>
	</g>
	<g>
		<line class="st2" x1="44.5" y1="74" x2="44.5" y2="81"/>
		<polyline class="st2" points="46.5,79 44.5,81 42.5,79 		"/>
	</g>
</g>
<g>
	<g>
		<g>
			<circle class="st2" cx="48.5" cy="108.8" r="2.5"/>
			<line class="st2" x1="50.2" y1="110.6" x2="52.2" y2="112.6"/>
		</g>
	</g>
	<polyline class="st2" points="43.4,109.4 36.8,109.4 36.8,103.4 36.8,97.4 42.8,97.4 48.8,97.4 48.8,104 	"/>
</g>
<g>
	<circle class="st3" cx="40.5" cy="131.5" r="1.5"/>
	<circle class="st3" cx="45.5" cy="131" r="1.5"/>
	<polyline class="st2" points="43.6,139.5 37,139.5 37,133.5 37,127.5 43,127.5 49,127.5 49,134.1 	"/>
	<circle class="st3" cx="41.5" cy="136" r="1.5"/>
	<g>
		<line class="st2" x1="49" y1="136.5" x2="49" y2="142.5"/>
		<line class="st2" x1="46" y1="139.5" x2="52" y2="139.5"/>
	</g>
</g>
</svg>
