<?xml version="1.0" encoding="utf-8"?>
<!-- Generator: Adobe Illustrator 18.1.1, SVG Export Plug-In . SVG Version: 6.00 Build 0)  -->
<svg version="1.1" id="Layer_1" xmlns="http://www.w3.org/2000/svg" xmlns:xlink="http://www.w3.org/1999/xlink" x="0px" y="0px"
	 width="12px" height="12px" viewBox="0 0 12 12" enable-background="new 0 0 12 12" xml:space="preserve">
<g>
	<rect x="6.8" y="8.8" transform="matrix(0.7071 0.7071 -0.7071 0.7071 9.2979 -3.8513)" fill="#C7C6C6" width="5" height="1"/>
	<path fill="#C7C6C6" d="M5,9.3c-2.4,0-4.4-2-4.4-4.4c0-2.4,2-4.4,4.4-4.4c2.4,0,4.4,2,4.4,4.4C9.3,7.4,7.4,9.3,5,9.3z M5,1.6
		C3.1,1.6,1.6,3.1,1.6,5S3.1,8.3,5,8.3S8.3,6.8,8.3,5S6.8,1.6,5,1.6z"/>
</g>
</svg>
